<mxfile host="app.diagrams.net" agent="Mozilla/5.0 (Windows NT 10.0; Win64; x64) AppleWebKit/537.36 (KHTML, like Gecko) Chrome/130.0.0.0 Safari/537.36" version="24.8.4">
  <diagram name="Σελίδα-1" id="dxBO8fbCIGoAIjxVQVVv">
    <mxGraphModel dx="2074" dy="738" grid="1" gridSize="10" guides="1" tooltips="1" connect="1" arrows="1" fold="1" page="1" pageScale="1" pageWidth="827" pageHeight="1169" math="0" shadow="0">
      <root>
        <mxCell id="0" />
        <mxCell id="1" parent="0" />
        <mxCell id="oUmeVkE507gfjKDubWNn-6" style="edgeStyle=none;rounded=0;orthogonalLoop=1;jettySize=auto;html=1;exitX=1;exitY=0.5;exitDx=0;exitDy=0;entryX=0;entryY=0.5;entryDx=0;entryDy=0;curved=1;" edge="1" parent="1" source="oUmeVkE507gfjKDubWNn-1" target="oUmeVkE507gfjKDubWNn-2">
          <mxGeometry relative="1" as="geometry">
            <Array as="points">
              <mxPoint x="300" y="200" />
            </Array>
          </mxGeometry>
        </mxCell>
        <mxCell id="oUmeVkE507gfjKDubWNn-7" style="edgeStyle=none;rounded=0;orthogonalLoop=1;jettySize=auto;html=1;exitX=1;exitY=0.5;exitDx=0;exitDy=0;entryX=0;entryY=0.5;entryDx=0;entryDy=0;curved=1;" edge="1" parent="1" source="oUmeVkE507gfjKDubWNn-1" target="oUmeVkE507gfjKDubWNn-3">
          <mxGeometry relative="1" as="geometry">
            <Array as="points">
              <mxPoint x="260" y="430" />
            </Array>
          </mxGeometry>
        </mxCell>
        <mxCell id="oUmeVkE507gfjKDubWNn-1" value="ENABLED" style="ellipse;whiteSpace=wrap;html=1;aspect=fixed;" vertex="1" parent="1">
          <mxGeometry x="130" y="250" width="80" height="80" as="geometry" />
        </mxCell>
        <mxCell id="oUmeVkE507gfjKDubWNn-2" value="FERROR" style="ellipse;whiteSpace=wrap;html=1;aspect=fixed;" vertex="1" parent="1">
          <mxGeometry x="430" y="150" width="80" height="80" as="geometry" />
        </mxCell>
        <mxCell id="oUmeVkE507gfjKDubWNn-3" value="PERROR" style="ellipse;whiteSpace=wrap;html=1;aspect=fixed;" vertex="1" parent="1">
          <mxGeometry x="390" y="430" width="80" height="80" as="geometry" />
        </mxCell>
        <mxCell id="oUmeVkE507gfjKDubWNn-8" style="edgeStyle=none;rounded=0;orthogonalLoop=1;jettySize=auto;html=1;exitX=1;exitY=0;exitDx=0;exitDy=0;entryX=1;entryY=1;entryDx=0;entryDy=0;curved=1;" edge="1" parent="1" source="oUmeVkE507gfjKDubWNn-2" target="oUmeVkE507gfjKDubWNn-2">
          <mxGeometry relative="1" as="geometry">
            <Array as="points">
              <mxPoint x="530" y="150" />
              <mxPoint x="570" y="190" />
              <mxPoint x="540" y="230" />
            </Array>
          </mxGeometry>
        </mxCell>
        <mxCell id="oUmeVkE507gfjKDubWNn-9" style="edgeStyle=none;rounded=0;orthogonalLoop=1;jettySize=auto;html=1;exitX=1;exitY=0;exitDx=0;exitDy=0;entryX=1;entryY=1;entryDx=0;entryDy=0;curved=1;" edge="1" parent="1">
          <mxGeometry relative="1" as="geometry">
            <mxPoint x="460" y="442" as="sourcePoint" />
            <mxPoint x="460" y="498" as="targetPoint" />
            <Array as="points">
              <mxPoint x="492" y="430" />
              <mxPoint x="532" y="470" />
              <mxPoint x="502" y="510" />
            </Array>
          </mxGeometry>
        </mxCell>
        <mxCell id="oUmeVkE507gfjKDubWNn-10" value="MEALY UART" style="text;html=1;align=center;verticalAlign=middle;resizable=0;points=[];autosize=1;strokeColor=none;fillColor=none;" vertex="1" parent="1">
          <mxGeometry x="350" y="50" width="100" height="30" as="geometry" />
        </mxCell>
        <mxCell id="oUmeVkE507gfjKDubWNn-11" value="1xx" style="text;html=1;align=center;verticalAlign=middle;resizable=0;points=[];autosize=1;strokeColor=none;fillColor=none;" vertex="1" parent="1">
          <mxGeometry x="280" y="190" width="40" height="30" as="geometry" />
        </mxCell>
        <mxCell id="oUmeVkE507gfjKDubWNn-12" value="01x" style="text;html=1;align=center;verticalAlign=middle;resizable=0;points=[];autosize=1;strokeColor=none;fillColor=none;" vertex="1" parent="1">
          <mxGeometry x="250" y="448" width="40" height="30" as="geometry" />
        </mxCell>
        <mxCell id="oUmeVkE507gfjKDubWNn-13" value="ferror perror valid" style="text;html=1;align=center;verticalAlign=middle;resizable=0;points=[];autosize=1;strokeColor=none;fillColor=none;" vertex="1" parent="1">
          <mxGeometry x="40" y="20" width="120" height="30" as="geometry" />
        </mxCell>
        <mxCell id="oUmeVkE507gfjKDubWNn-14" value="in1&amp;nbsp; &amp;nbsp; in2&amp;nbsp; &amp;nbsp; in3" style="text;html=1;align=center;verticalAlign=middle;resizable=0;points=[];autosize=1;strokeColor=none;fillColor=none;" vertex="1" parent="1">
          <mxGeometry x="50" y="38" width="100" height="30" as="geometry" />
        </mxCell>
        <mxCell id="oUmeVkE507gfjKDubWNn-16" style="edgeStyle=none;rounded=0;orthogonalLoop=1;jettySize=auto;html=1;exitX=0;exitY=1;exitDx=0;exitDy=0;entryX=0;entryY=0;entryDx=0;entryDy=0;strokeColor=none;curved=1;" edge="1" parent="1" source="oUmeVkE507gfjKDubWNn-18" target="oUmeVkE507gfjKDubWNn-1">
          <mxGeometry relative="1" as="geometry">
            <Array as="points">
              <mxPoint x="100" y="250" />
            </Array>
          </mxGeometry>
        </mxCell>
        <mxCell id="oUmeVkE507gfjKDubWNn-17" style="edgeStyle=none;rounded=0;orthogonalLoop=1;jettySize=auto;html=1;exitX=0;exitY=1;exitDx=0;exitDy=0;entryX=0;entryY=0;entryDx=0;entryDy=0;curved=1;" edge="1" parent="1" source="oUmeVkE507gfjKDubWNn-1" target="oUmeVkE507gfjKDubWNn-1">
          <mxGeometry relative="1" as="geometry">
            <Array as="points">
              <mxPoint x="100" y="330" />
              <mxPoint x="70" y="290" />
              <mxPoint x="110" y="250" />
            </Array>
          </mxGeometry>
        </mxCell>
        <mxCell id="oUmeVkE507gfjKDubWNn-19" value="" style="edgeStyle=none;rounded=0;orthogonalLoop=1;jettySize=auto;html=1;exitX=0;exitY=1;exitDx=0;exitDy=0;entryX=0;entryY=0;entryDx=0;entryDy=0;strokeColor=none;curved=1;" edge="1" parent="1" source="oUmeVkE507gfjKDubWNn-1" target="oUmeVkE507gfjKDubWNn-18">
          <mxGeometry relative="1" as="geometry">
            <mxPoint x="142" y="318" as="sourcePoint" />
            <mxPoint x="142" y="262" as="targetPoint" />
            <Array as="points">
              <mxPoint x="100" y="350" />
              <mxPoint x="40" y="290" />
            </Array>
          </mxGeometry>
        </mxCell>
        <mxCell id="oUmeVkE507gfjKDubWNn-18" value="00x" style="text;html=1;align=center;verticalAlign=middle;resizable=0;points=[];autosize=1;strokeColor=none;fillColor=none;" vertex="1" parent="1">
          <mxGeometry x="40" y="260" width="40" height="30" as="geometry" />
        </mxCell>
        <mxCell id="oUmeVkE507gfjKDubWNn-20" value="Ouputs are different when in&amp;nbsp;&lt;div&gt;enabled state based on&amp;nbsp;Inputs&lt;/div&gt;" style="text;html=1;align=center;verticalAlign=middle;resizable=0;points=[];autosize=1;strokeColor=none;fillColor=none;" vertex="1" parent="1">
          <mxGeometry x="580" y="68" width="180" height="40" as="geometry" />
        </mxCell>
        <mxCell id="oUmeVkE507gfjKDubWNn-33" style="edgeStyle=orthogonalEdgeStyle;rounded=0;orthogonalLoop=1;jettySize=auto;html=1;exitX=0;exitY=0.25;exitDx=0;exitDy=0;endArrow=none;endFill=0;" edge="1" parent="1" source="oUmeVkE507gfjKDubWNn-21">
          <mxGeometry relative="1" as="geometry">
            <mxPoint x="770" y="160" as="targetPoint" />
            <Array as="points">
              <mxPoint x="970" y="383" />
              <mxPoint x="970" y="150" />
              <mxPoint x="770" y="150" />
            </Array>
          </mxGeometry>
        </mxCell>
        <mxCell id="oUmeVkE507gfjKDubWNn-21" value="Combinational&lt;br&gt;Output&lt;br&gt;Logic" style="whiteSpace=wrap;html=1;aspect=fixed;" vertex="1" parent="1">
          <mxGeometry x="990" y="355" width="110" height="110" as="geometry" />
        </mxCell>
        <mxCell id="oUmeVkE507gfjKDubWNn-22" style="edgeStyle=orthogonalEdgeStyle;rounded=0;orthogonalLoop=1;jettySize=auto;html=1;exitX=1;exitY=0.5;exitDx=0;exitDy=0;entryX=1;entryY=0.25;entryDx=0;entryDy=0;" edge="1" parent="1" source="oUmeVkE507gfjKDubWNn-23" target="oUmeVkE507gfjKDubWNn-26">
          <mxGeometry relative="1" as="geometry" />
        </mxCell>
        <mxCell id="oUmeVkE507gfjKDubWNn-23" value="Combinational&lt;br&gt;State&lt;br&gt;Logic" style="whiteSpace=wrap;html=1;aspect=fixed;" vertex="1" parent="1">
          <mxGeometry x="800" y="180" width="110" height="110" as="geometry" />
        </mxCell>
        <mxCell id="oUmeVkE507gfjKDubWNn-24" style="edgeStyle=orthogonalEdgeStyle;rounded=0;orthogonalLoop=1;jettySize=auto;html=1;exitX=1;exitY=0.5;exitDx=0;exitDy=0;entryX=0;entryY=0.5;entryDx=0;entryDy=0;" edge="1" parent="1" source="oUmeVkE507gfjKDubWNn-26" target="oUmeVkE507gfjKDubWNn-21">
          <mxGeometry relative="1" as="geometry" />
        </mxCell>
        <mxCell id="oUmeVkE507gfjKDubWNn-25" style="edgeStyle=orthogonalEdgeStyle;rounded=0;orthogonalLoop=1;jettySize=auto;html=1;exitX=0;exitY=0.25;exitDx=0;exitDy=0;entryX=0;entryY=0.5;entryDx=0;entryDy=0;" edge="1" parent="1" source="oUmeVkE507gfjKDubWNn-26" target="oUmeVkE507gfjKDubWNn-23">
          <mxGeometry relative="1" as="geometry" />
        </mxCell>
        <mxCell id="oUmeVkE507gfjKDubWNn-26" value="State Register" style="whiteSpace=wrap;html=1;aspect=fixed;" vertex="1" parent="1">
          <mxGeometry x="800" y="355" width="110" height="110" as="geometry" />
        </mxCell>
        <mxCell id="oUmeVkE507gfjKDubWNn-27" value="next_state" style="text;html=1;align=center;verticalAlign=middle;resizable=0;points=[];autosize=1;strokeColor=none;fillColor=none;rotation=90;" vertex="1" parent="1">
          <mxGeometry x="910" y="290" width="80" height="30" as="geometry" />
        </mxCell>
        <mxCell id="oUmeVkE507gfjKDubWNn-28" value="cur_state&amp;nbsp;" style="text;html=1;align=center;verticalAlign=middle;resizable=0;points=[];autosize=1;strokeColor=none;fillColor=none;rotation=270;" vertex="1" parent="1">
          <mxGeometry x="725" y="300" width="80" height="30" as="geometry" />
        </mxCell>
        <mxCell id="oUmeVkE507gfjKDubWNn-29" value="" style="endArrow=classic;html=1;rounded=0;entryX=0;entryY=0.25;entryDx=0;entryDy=0;" edge="1" parent="1" target="oUmeVkE507gfjKDubWNn-23">
          <mxGeometry width="50" height="50" relative="1" as="geometry">
            <mxPoint x="670" y="208" as="sourcePoint" />
            <mxPoint x="650" y="225" as="targetPoint" />
            <Array as="points">
              <mxPoint x="750" y="208" />
            </Array>
          </mxGeometry>
        </mxCell>
        <mxCell id="oUmeVkE507gfjKDubWNn-30" value="Input" style="text;html=1;align=center;verticalAlign=middle;resizable=0;points=[];autosize=1;strokeColor=none;fillColor=none;" vertex="1" parent="1">
          <mxGeometry x="680" y="180" width="50" height="30" as="geometry" />
        </mxCell>
        <mxCell id="oUmeVkE507gfjKDubWNn-32" value="" style="endArrow=classic;html=1;rounded=0;" edge="1" parent="1">
          <mxGeometry width="50" height="50" relative="1" as="geometry">
            <mxPoint x="770" y="210" as="sourcePoint" />
            <mxPoint x="770" y="160" as="targetPoint" />
          </mxGeometry>
        </mxCell>
      </root>
    </mxGraphModel>
  </diagram>
</mxfile>
